<svg xmlns="http://www.w3.org/2000/svg" width="19" height="23" viewBox="0 0 19 23">
  <g id="koszyk" transform="translate(-3 -1)">
    <g id="single-02" transform="translate(3 1)">
      <path id="Path" d="M12,0H6A6,6,0,0,0,0,6V7A32.472,32.472,0,0,0,9,8a32.472,32.472,0,0,0,9-1V6A6,6,0,0,0,12,0Z" transform="translate(0.5 14.5)" fill="none" stroke="#111" stroke-linecap="round" stroke-linejoin="round" stroke-miterlimit="10" stroke-width="1"/>
      <path id="Path-2" data-name="Path" d="M0,5A5,5,0,0,1,10,5c0,2.761-2.239,6-5,6S0,7.761,0,5Z" transform="translate(4.5 0.5)" fill="none" stroke="#111" stroke-linecap="round" stroke-linejoin="round" stroke-miterlimit="10" stroke-width="1"/>
    </g>
  </g>
</svg>
