<?xml version="1.0" standalone="no"?>
<!DOCTYPE svg PUBLIC "-//W3C//DTD SVG 20010904//EN"
 "http://www.w3.org/TR/2001/REC-SVG-20010904/DTD/svg10.dtd">
<svg version="1.0" xmlns="http://www.w3.org/2000/svg"
 width="169.000000pt" height="164.000000pt" viewBox="0 0 169.000000 164.000000"
 preserveAspectRatio="xMidYMid meet">

<g transform="translate(0.000000,164.000000) scale(0.100000,-0.100000)"
fill="#000000" stroke="none">
<path d="M886 1525 c-49 -17 -113 -78 -137 -130 -14 -30 -19 -64 -19 -137 l0
-97 -152 -3 -153 -3 -3 -82 c-3 -93 8 -126 41 -121 20 3 22 10 25 71 l3 67
484 0 c267 0 485 -3 485 -7 0 -5 -9 -177 -20 -383 -11 -206 -20 -392 -20 -412
0 -25 -7 -44 -22 -58 -21 -19 -33 -20 -423 -20 -325 0 -405 3 -420 14 -12 9
-21 31 -24 61 -6 51 -26 73 -56 61 -15 -5 -17 -16 -13 -66 3 -49 9 -65 33 -90
16 -17 45 -35 65 -41 22 -6 180 -9 437 -7 387 3 403 4 430 24 58 42 59 53 82
525 12 240 19 443 15 453 -5 14 -26 16 -155 16 l-149 0 0 93 c0 76 -4 101 -24
143 -54 117 -188 173 -310 129z m178 -79 c65 -38 86 -86 86 -195 l0 -91 -181
0 -182 0 5 93 c5 93 19 137 54 169 60 54 150 64 218 24z"/>
<path d="M240 865 c-6 -8 -10 -22 -8 -32 3 -17 20 -18 243 -18 223 0 240 1
243 18 9 44 -8 47 -243 47 -182 0 -225 -3 -235 -15z"/>
<path d="M70 675 c-6 -8 -9 -23 -5 -35 6 -19 13 -20 265 -20 246 0 260 1 270
19 7 15 6 23 -6 35 -22 23 -505 24 -524 1z"/>
<path d="M240 485 c-6 -8 -10 -22 -8 -32 3 -17 20 -18 243 -18 223 0 240 1
243 18 9 44 -8 47 -243 47 -182 0 -225 -3 -235 -15z"/>
</g>
</svg>
