<?xml version="1.0" standalone="no"?>
<!DOCTYPE svg PUBLIC "-//W3C//DTD SVG 20010904//EN"
 "http://www.w3.org/TR/2001/REC-SVG-20010904/DTD/svg10.dtd">
<svg version="1.0" xmlns="http://www.w3.org/2000/svg"
 width="151.000000pt" height="150.000000pt" viewBox="0 0 151.000000 150.000000"
 preserveAspectRatio="xMidYMid meet">

<g transform="translate(0.000000,150.000000) scale(0.100000,-0.100000)"
fill="#000000" stroke="none">
<path d="M620 1350 l-112 -90 -138 0 c-117 0 -139 -2 -144 -16 -3 -9 -6 -74
-6 -145 l0 -130 -85 -105 c-47 -59 -85 -114 -85 -123 1 -9 39 -63 85 -121 l85
-105 0 -128 c0 -71 5 -137 10 -148 10 -17 22 -19 147 -19 l136 0 66 -53 c36
-30 88 -70 115 -91 57 -43 45 -48 192 71 l91 73 136 0 c125 0 137 2 147 19 5
11 10 77 10 148 l0 128 85 105 c46 58 84 112 85 121 0 9 -38 64 -85 123 l-85
105 0 130 c0 71 -3 136 -6 145 -5 14 -27 16 -144 16 l-138 0 -112 90 c-62 50
-118 90 -125 90 -7 0 -63 -40 -125 -90z m235 -70 l100 -80 123 0 122 0 0 -121
0 -121 72 -92 c39 -50 78 -98 85 -107 12 -15 3 -30 -72 -124 l-85 -108 0 -119
0 -118 -119 0 -120 0 -107 -85 c-59 -47 -112 -82 -118 -78 -6 4 -55 42 -109
85 l-98 78 -120 0 -119 0 0 118 0 119 -85 108 c-75 94 -84 109 -72 124 7 9 46
57 85 107 l72 92 0 121 0 121 123 0 122 0 100 80 c55 44 105 80 110 80 6 0 55
-36 110 -80z"/>
<path d="M508 1024 c-78 -42 -75 -169 4 -210 92 -48 200 43 168 141 -24 73
-105 106 -172 69z m90 -60 c42 -29 17 -104 -35 -104 -20 0 -53 38 -53 60 0 22
33 60 53 60 7 0 23 -7 35 -16z"/>
<path d="M723 767 c-236 -235 -260 -267 -208 -275 15 -2 85 62 255 233 198
198 233 238 224 252 -6 9 -16 19 -23 21 -7 2 -119 -101 -248 -231z"/>
<path d="M842 650 c-37 -36 -47 -78 -32 -125 17 -51 53 -75 112 -75 43 0 54 4
84 34 29 29 34 41 34 81 0 40 -5 52 -34 81 -30 30 -40 34 -84 34 -43 0 -55 -5
-80 -30z m120 -47 c36 -33 10 -93 -42 -93 -35 0 -50 17 -50 57 0 49 54 71 92
36z"/>
</g>
</svg>
