<?xml version="1.0" standalone="no"?>
<!DOCTYPE svg PUBLIC "-//W3C//DTD SVG 20010904//EN"
 "http://www.w3.org/TR/2001/REC-SVG-20010904/DTD/svg10.dtd">
<svg version="1.0" xmlns="http://www.w3.org/2000/svg"
 width="137.000000pt" height="154.000000pt" viewBox="0 0 137.000000 154.000000"
 preserveAspectRatio="xMidYMid meet">

<g transform="translate(0.000000,154.000000) scale(0.100000,-0.100000)"
fill="#000000" stroke="none">
<path d="M391 1390 c-156 -38 -277 -73 -282 -81 -15 -25 -11 -704 5 -781 58
-271 296 -462 576 -461 223 1 425 129 521 331 53 111 59 161 59 555 l0 357
-22 10 c-29 13 -553 140 -570 139 -7 -1 -136 -31 -287 -69z m557 -62 l252 -63
0 -350 c0 -292 -3 -361 -16 -406 -27 -91 -73 -165 -145 -233 -165 -156 -381
-189 -589 -89 -67 32 -185 148 -222 219 -54 100 -58 138 -58 514 l0 345 243
62 c133 33 251 62 262 62 11 1 134 -27 273 -61z"/>
<path d="M612 1124 c-74 -38 -102 -100 -102 -226 l0 -78 -33 0 c-18 0 -38 -5
-45 -12 -17 -17 -17 -349 0 -366 17 -17 489 -17 506 0 17 17 17 349 0 366 -7
7 -26 12 -44 12 l-32 0 -4 98 c-5 110 -19 146 -74 188 -45 35 -123 43 -172 18z
m129 -64 c35 -19 49 -64 49 -155 l0 -85 -105 0 -105 0 0 86 c0 89 8 118 44
146 23 20 87 24 117 8z m139 -435 l0 -125 -195 0 -195 0 0 125 0 125 195 0
195 0 0 -125z"/>
<path d="M647 662 c-33 -36 -8 -92 40 -92 25 0 53 30 53 57 0 46 -62 69 -93
35z m47 -43 c-3 -5 -10 -7 -15 -3 -5 3 -7 10 -3 15 3 5 10 7 15 3 5 -3 7 -10
3 -15z"/>
</g>
</svg>
